<?xml version="1.0" encoding="UTF-8" standalone="no"?>
<!-- Created with Inkscape (http://www.inkscape.org/) -->

<svg
   width="47.882mm"
   height="70.205002mm"
   viewBox="0 0 47.882001 70.205002"
   version="1.1"
   id="svg1"
   inkscape:version="1.4.2 (ebf0e940d0, 2025-05-08)"
   sodipodi:docname="footer-logo.svg"
   xml:space="preserve"
   xmlns:inkscape="http://www.inkscape.org/namespaces/inkscape"
   xmlns:sodipodi="http://sodipodi.sourceforge.net/DTD/sodipodi-0.dtd"
   xmlns="http://www.w3.org/2000/svg"
   xmlns:svg="http://www.w3.org/2000/svg"><sodipodi:namedview
     id="namedview1"
     pagecolor="#ffffff"
     bordercolor="#000000"
     borderopacity="0.25"
     inkscape:showpageshadow="2"
     inkscape:pageopacity="0.0"
     inkscape:pagecheckerboard="0"
     inkscape:deskcolor="#d1d1d1"
     inkscape:document-units="mm"
     inkscape:zoom="1.6109619"
     inkscape:cx="362.82671"
     inkscape:cy="40.038191"
     inkscape:window-width="2048"
     inkscape:window-height="1080"
     inkscape:window-x="0"
     inkscape:window-y="0"
     inkscape:window-maximized="1"
     inkscape:current-layer="layer1"
     showborder="true"
     showguides="false"><inkscape:page
       x="-1.8874609e-15"
       y="0"
       width="118.07233"
       height="70.205162"
       id="page2"
       margin="0"
       bleed="0" /></sodipodi:namedview><defs
     id="defs1" /><g
     inkscape:label="Layer 1"
     inkscape:groupmode="layer"
     id="layer1"
     transform="translate(-25.671825,-203.8796)"><g
       style="fill:none"
       id="g11"
       transform="matrix(0.79778604,0,0,0.79778604,-54.090752,159.20358)"
       inkscape:label="logo3"><circle
         cx="70"
         cy="100"
         r="40"
         stroke="#d46a6a"
         stroke-width="8"
         id="circle1" /><circle
         cx="130"
         cy="100"
         r="40"
         stroke="#d46a6a"
         stroke-width="8"
         id="circle2" /><path
         d="M 100,90 C 95,80 75,80 75,100 c 0,15 25,30 25,30 0,0 25,-15 25,-30 0,-20 -20,-20 -25,-10 z"
         fill="#d46a6a"
         id="path2"
         inkscape:label="heart" /></g><g
       style="fill:none"
       id="g11-3"
       transform="matrix(0.79778604,0,0,0.79778604,-6.1994014,159.21344)"
       inkscape:label="logo3"><circle
         cx="70"
         cy="100"
         r="40"
         stroke="#d46a6a"
         stroke-width="8"
         id="circle1-6" /><circle
         cx="130"
         cy="100"
         r="40"
         stroke="#d46a6a"
         stroke-width="8"
         id="circle2-1" /><path
         d="M 100,90 C 95,80 75,80 75,100 c 0,15 25,30 25,30 0,0 25,-15 25,-30 0,-20 -20,-20 -25,-10 z"
         fill="#d46a6a"
         id="path2-2"
         inkscape:label="heart" /></g></g></svg>
